<svg width="673" height="200" viewBox="0 0 673 200" fill="none" xmlns="http://www.w3.org/2000/svg">
<path d="M456 191.001V72.4105L559 9.00098" stroke="black" stroke-width="12" stroke-linecap="round"/>
<path d="M493 191.001V72.4105L391 9.00098" stroke="black" stroke-width="12" stroke-linecap="round"/>
<path d="M422 6.00098L474.196 39.001L528 6.00098" stroke="black" stroke-width="12" stroke-linecap="round"/>
<path d="M493 193.001L559 155.001" stroke="black" stroke-width="12" stroke-linecap="round"/>
<path d="M559 9.00098V155.001" stroke="black" stroke-width="12" stroke-linecap="round"/>
<path d="M456 194.001L390 156.001" stroke="black" stroke-width="12" stroke-linecap="round"/>
<path d="M427 108.001L391 85.001" stroke="black" stroke-width="12" stroke-linecap="round"/>
<path d="M523 108.001L559 85.001" stroke="black" stroke-width="12" stroke-linecap="round"/>
<path d="M389 9.00098L390 156.001" stroke="black" stroke-width="12" stroke-linecap="round"/>
<path d="M12.544 148.001V58.401H26.368V148.001H12.544ZM18.688 109.857V96.545H64.896V109.857H18.688ZM18.688 71.713V58.401H70.656V71.713H18.688ZM125.923 149.281C119.608 149.281 113.763 148.129 108.387 145.825C103.096 143.521 98.4457 140.321 94.435 136.225C90.5097 132.044 87.4377 127.18 85.219 121.633C83.0857 116.001 82.019 109.857 82.019 103.201C82.019 96.545 83.0857 90.4436 85.219 84.897C87.4377 79.265 90.5097 74.401 94.435 70.305C98.4457 66.1236 103.096 62.881 108.387 60.577C113.763 58.273 119.608 57.121 125.923 57.121C132.238 57.121 138.04 58.273 143.331 60.577C148.707 62.881 153.358 66.1236 157.283 70.305C161.294 74.4863 164.366 79.393 166.499 85.025C168.718 90.5716 169.827 96.6303 169.827 103.201C169.827 109.772 168.718 115.873 166.499 121.505C164.366 127.052 161.294 131.916 157.283 136.097C153.358 140.278 148.707 143.521 143.331 145.825C138.04 148.129 132.238 149.281 125.923 149.281ZM125.923 135.841C130.275 135.841 134.243 135.03 137.827 133.409C141.496 131.788 144.654 129.526 147.299 126.625C149.944 123.638 151.992 120.182 153.443 116.257C154.979 112.246 155.747 107.894 155.747 103.201C155.747 98.5076 154.979 94.1983 153.443 90.273C151.992 86.2623 149.944 82.8063 147.299 79.905C144.654 76.9183 141.496 74.6143 137.827 72.993C134.243 71.3716 130.275 70.561 125.923 70.561C121.571 70.561 117.56 71.3716 113.891 72.993C110.307 74.6143 107.15 76.8756 104.419 79.777C101.774 82.6783 99.7257 86.1343 98.275 90.145C96.8243 94.0703 96.099 98.4223 96.099 103.201C96.099 107.894 96.8243 112.246 98.275 116.257C99.7257 120.268 101.774 123.724 104.419 126.625C107.15 129.526 110.307 131.788 113.891 133.409C117.56 135.03 121.571 135.841 125.923 135.841ZM188.544 148.001V58.401H226.688C231.808 58.401 236.501 59.681 240.768 62.241C245.12 64.7156 248.576 68.129 251.136 72.481C253.696 76.7476 254.976 81.569 254.976 86.945C254.976 91.809 253.696 96.3316 251.136 100.513C248.576 104.694 245.163 108.065 240.896 110.625C236.629 113.1 231.893 114.337 226.688 114.337H202.368V148.001H188.544ZM241.792 148.001L219.008 107.553L233.216 104.353L258.56 148.129L241.792 148.001ZM202.368 101.025H227.968C230.443 101.025 232.661 100.428 234.624 99.233C236.587 97.953 238.123 96.2463 239.232 94.113C240.341 91.8943 240.896 89.4623 240.896 86.817C240.896 83.8303 240.171 81.2276 238.72 79.009C237.355 76.705 235.392 74.913 232.832 73.633C230.357 72.353 227.541 71.713 224.384 71.713H202.368V101.025ZM316.358 149.281C309.873 149.281 303.814 148.129 298.182 145.825C292.55 143.436 287.601 140.15 283.334 135.969C279.067 131.788 275.739 126.924 273.35 121.377C271.046 115.745 269.894 109.686 269.894 103.201C269.894 96.801 271.046 90.8276 273.35 85.281C275.739 79.7343 279.025 74.913 283.206 70.817C287.473 66.6356 292.422 63.393 298.054 61.089C303.686 58.785 309.745 57.633 316.23 57.633C320.753 57.633 325.147 58.273 329.414 59.553C333.766 60.833 337.691 62.625 341.19 64.929C344.689 67.233 347.547 69.8783 349.766 72.865L340.806 82.209C338.246 79.7343 335.601 77.6863 332.87 76.065C330.225 74.4436 327.494 73.2063 324.678 72.353C321.862 71.4996 319.046 71.073 316.23 71.073C311.622 71.073 307.355 71.8836 303.43 73.505C299.59 75.1263 296.177 77.3876 293.19 80.289C290.289 83.1903 288.027 86.6036 286.406 90.529C284.785 94.369 283.974 98.593 283.974 103.201C283.974 107.638 284.827 111.862 286.534 115.873C288.241 119.798 290.587 123.254 293.574 126.241C296.646 129.228 300.145 131.574 304.07 133.281C308.081 134.988 312.305 135.841 316.742 135.841C320.07 135.841 323.227 135.372 326.214 134.433C329.201 133.409 331.846 132.001 334.15 130.209C336.454 128.417 338.246 126.369 339.526 124.065C340.806 121.676 341.446 119.158 341.446 116.513V113.953L343.366 115.745H315.974V102.049H355.654C355.825 102.988 355.953 103.926 356.038 104.865C356.123 105.718 356.166 106.572 356.166 107.425C356.251 108.193 356.294 108.961 356.294 109.729C356.294 115.617 355.27 120.993 353.222 125.857C351.174 130.636 348.315 134.774 344.646 138.273C341.062 141.772 336.838 144.502 331.974 146.465C327.195 148.342 321.99 149.281 316.358 149.281ZM589.544 148.001V58.401H624.616C631.016 58.401 636.776 59.4676 641.896 61.601C647.101 63.7343 651.539 66.8063 655.208 70.817C658.877 74.8276 661.693 79.5636 663.656 85.025C665.619 90.4863 666.6 96.545 666.6 103.201C666.6 109.857 665.619 115.958 663.656 121.505C661.693 126.966 658.877 131.702 655.208 135.713C651.624 139.638 647.229 142.668 642.024 144.801C636.819 146.934 631.016 148.001 624.616 148.001H589.544ZM603.368 136.097L602.984 134.689H623.976C628.499 134.689 632.509 133.964 636.008 132.513C639.592 131.062 642.579 129.014 644.968 126.369C647.443 123.638 649.32 120.31 650.6 116.385C651.88 112.46 652.52 108.065 652.52 103.201C652.52 98.337 651.88 93.985 650.6 90.145C649.32 86.2196 647.443 82.8916 644.968 80.161C642.493 77.4303 639.507 75.3396 636.008 73.889C632.509 72.4383 628.499 71.713 623.976 71.713H602.6L603.368 70.561V136.097Z" fill="black"/>
<path d="M493.927 28.001L456.018 5.77881" stroke="black" stroke-width="6" stroke-linecap="round"/>
<path d="M507.033 20.8896L481.426 4.88965" stroke="black" stroke-width="6" stroke-linecap="round"/>
<path d="M518.505 14.6676L503.067 4.00098" stroke="black" stroke-width="6" stroke-linecap="round"/>
</svg>
